<svg width="715" height="232" viewBox="0 0 715 232" fill="none" xmlns="http://www.w3.org/2000/svg">
<path d="M6.78003e-07 180V-7.15256e-06H32.5V180H6.78003e-07ZM15.5 180V154.25H121V180H15.5ZM196.457 182.5C182.957 182.5 171.04 179.667 160.707 174C150.54 168.333 142.624 160.5 136.957 150.5C131.29 140.333 128.457 128.75 128.457 115.75C128.457 102.75 131.29 91.3333 136.957 81.5C142.624 71.6667 150.54 64 160.707 58.5C171.04 52.8333 182.957 50 196.457 50C210.124 50 222.04 52.8333 232.207 58.5C242.374 64 250.29 71.6667 255.957 81.5C261.624 91.3333 264.457 102.75 264.457 115.75C264.457 128.75 261.54 140.333 255.707 150.5C250.04 160.5 242.124 168.333 231.957 174C221.79 179.667 209.957 182.5 196.457 182.5ZM196.457 157.25C203.124 157.25 209.124 155.583 214.457 152.25C219.79 148.75 223.957 143.917 226.957 137.75C229.957 131.417 231.457 124 231.457 115.5C231.457 103 228.124 93.1667 221.457 86C214.957 78.8333 206.624 75.25 196.457 75.25C186.29 75.25 177.874 78.8333 171.207 86C164.54 93.1667 161.207 103 161.207 115.5C161.207 124 162.707 131.417 165.707 137.75C168.874 143.917 173.04 148.75 178.207 152.25C183.54 155.583 189.624 157.25 196.457 157.25ZM328.877 182.5C320.044 182.5 312.377 180.667 305.877 177C299.544 173.167 294.627 168 291.127 161.5C287.794 155 286.127 147.667 286.127 139.5V52.5H317.627V133C317.627 140.833 319.544 146.75 323.377 150.75C327.377 154.75 332.96 156.75 340.127 156.75C346.627 156.75 352.294 155.25 357.127 152.25C362.127 149.25 366.044 145.083 368.877 139.75C371.877 134.25 373.377 128.083 373.377 121.25L376.627 151.75C372.46 161.083 366.21 168.583 357.877 174.25C349.71 179.75 340.044 182.5 328.877 182.5ZM374.377 180V150H373.377V52.5H405.127V180H374.377ZM511.256 182.5C499.089 182.5 489.173 179.667 481.506 174C474.006 168.167 469.339 160.167 467.506 150L470.006 149.75V231.25H438.506V52.5H469.256V81.25L466.756 80.75C469.089 71.25 474.423 63.75 482.756 58.25C491.089 52.75 501.256 50 513.256 50C524.589 50 534.423 52.75 542.756 58.25C551.256 63.5833 557.839 71.1667 562.506 81C567.173 90.8333 569.506 102.417 569.506 115.75C569.506 129.25 567.089 141 562.256 151C557.423 161 550.673 168.75 542.006 174.25C533.339 179.75 523.089 182.5 511.256 182.5ZM503.256 156.5C513.423 156.5 521.506 153 527.506 146C533.506 138.833 536.506 128.833 536.506 116C536.506 103.167 533.423 93.25 527.256 86.25C521.256 79.25 513.173 75.75 503.006 75.75C493.006 75.75 484.923 79.3333 478.756 86.5C472.589 93.5 469.506 103.417 469.506 116.25C469.506 129.083 472.589 139 478.756 146C484.923 153 493.089 156.5 503.256 156.5ZM652.738 182.5C639.238 182.5 627.405 179.667 617.238 174C607.238 168.333 599.405 160.5 593.738 150.5C588.238 140.5 585.488 129 585.488 116C585.488 103 588.238 91.5833 593.738 81.75C599.405 71.75 607.238 64 617.238 58.5C627.238 52.8333 638.905 50 652.238 50C664.905 50 675.905 52.6667 685.238 58C694.572 63.1667 701.822 70.5 706.988 80C712.155 89.5 714.738 100.583 714.738 113.25C714.738 115.583 714.655 117.75 714.488 119.75C714.322 121.75 714.072 123.75 713.738 125.75H604.988V103.75H689.488L682.988 109.75C682.988 97.75 680.238 88.75 674.738 82.75C669.238 76.75 661.572 73.75 651.738 73.75C641.072 73.75 632.572 77.4167 626.238 84.75C620.072 92.0833 616.988 102.667 616.988 116.5C616.988 130.167 620.072 140.667 626.238 148C632.572 155.167 641.488 158.75 652.988 158.75C659.655 158.75 665.488 157.5 670.488 155C675.488 152.5 679.155 148.667 681.488 143.5H711.238C707.072 155.5 699.988 165 689.988 172C680.155 179 667.738 182.5 652.738 182.5Z" fill="#111118"/>
</svg>
